<?xml version="1.0" standalone="no"?>
<!DOCTYPE svg PUBLIC "-//W3C//DTD SVG 20010904//EN"
 "http://www.w3.org/TR/2001/REC-SVG-20010904/DTD/svg10.dtd">
<svg version="1.0" xmlns="http://www.w3.org/2000/svg"
 width="500.000000pt" height="500.000000pt" viewBox="0 0 500.000000 500.000000"
 preserveAspectRatio="xMidYMid meet">

<g transform="translate(0.000000,500.000000) scale(0.100000,-0.100000)"
fill="#000000" stroke="none">
<path d="M2475 4023 c-22 -2 -87 -11 -145 -20 -58 -8 -119 -16 -136 -17 -18
-1 -39 -8 -48 -15 -9 -7 -23 -11 -31 -7 -8 3 -15 1 -15 -4 0 -5 -19 -14 -42
-20 -90 -22 -207 -89 -318 -180 -66 -54 -171 -162 -165 -169 3 -2 -4 -11 -15
-18 -11 -8 -18 -19 -15 -24 4 -5 1 -9 -5 -9 -5 0 -18 -16 -27 -35 -9 -19 -21
-31 -26 -28 -6 4 -7 1 -2 -7 5 -8 2 -17 -7 -24 -15 -11 -18 -17 -18 -37 0 -5
-4 -7 -10 -4 -5 3 -10 0 -11 -7 -2 -32 -11 -64 -23 -83 -15 -23 -48 -123 -68
-205 -8 -36 -13 -119 -12 -240 1 -171 3 -192 28 -275 38 -127 79 -214 155
-330 212 -326 565 -515 961 -515 334 0 635 133 852 377 186 209 284 449 295
723 8 189 -27 342 -116 515 -19 39 -36 74 -36 80 0 5 -9 19 -20 31 -11 12 -35
44 -54 70 -34 48 -34 48 -6 24 28 -24 28 -24 -4 17 -32 43 -62 70 -46 42 8
-12 6 -12 -8 0 -9 7 -14 17 -11 22 3 5 0 8 -7 7 -7 -2 -13 4 -14 12 0 8 -10
19 -22 26 -13 6 -33 26 -45 44 -13 18 -39 41 -58 51 -19 10 -39 22 -45 26 -36
29 -109 72 -116 67 -5 -3 -9 0 -9 6 0 9 -25 23 -55 30 -5 1 -27 11 -49 22 -46
23 -120 43 -196 53 -30 3 -68 10 -85 15 -42 12 -103 17 -150 13z m30 -185 c5
-24 9 -29 13 -17 5 12 20 15 62 14 58 -1 176 -30 198 -47 7 -6 15 -8 19 -4 3
3 0 6 -7 6 -7 0 -11 3 -8 6 4 3 23 -5 45 -19 21 -13 70 -39 108 -58 39 -19 77
-42 86 -51 9 -10 18 -16 20 -14 2 2 10 -2 17 -10 9 -10 9 -14 1 -14 -8 0 -8
-4 1 -15 15 -18 34 -20 25 -2 -4 6 3 1 14 -13 11 -14 27 -33 35 -42 9 -10 16
-22 16 -27 0 -4 12 -17 26 -27 48 -35 60 -49 119 -137 78 -114 91 -135 110
-177 9 -19 21 -37 27 -41 5 -4 14 -24 18 -45 5 -22 15 -59 23 -84 9 -25 21
-66 27 -92 7 -26 17 -46 24 -45 23 4 18 -118 -9 -231 -47 -198 -196 -448 -332
-558 -122 -99 -270 -176 -418 -220 -107 -31 -320 -43 -450 -26 -96 13 -254 65
-348 115 -276 148 -463 401 -538 729 -38 169 -12 406 65 586 51 118 156 269
178 255 7 -4 9 0 5 10 -4 11 -2 14 7 11 8 -3 27 8 44 24 16 16 58 42 93 60 35
17 72 40 81 51 10 12 27 21 37 21 11 0 27 7 35 16 11 10 16 11 16 3 0 -8 6 -7
18 4 10 9 27 18 38 20 10 2 29 8 41 15 12 7 31 12 42 12 11 0 23 5 26 10 3 6
43 10 88 9 55 0 75 -3 62 -9 -16 -7 -11 -9 21 -9 29 -1 44 4 48 14 6 16 36 21
36 5 0 -5 7 -7 15 -4 8 4 15 2 15 -3 0 -18 -52 -107 -96 -166 -24 -33 -44 -63
-44 -69 0 -9 109 -1 120 9 13 12 33 107 56 271 3 17 9 32 13 32 5 0 12 -15 16
-32z"/>
<path d="M2354 3509 c-46 -13 -74 -72 -83 -173 -9 -89 -14 -106 -37 -106 -8 0
-14 -4 -14 -10 0 -5 3 -10 8 -10 4 0 23 -16 43 -34 26 -25 38 -47 44 -78 l7
-43 19 90 c10 50 24 123 29 163 6 40 19 104 29 142 21 78 20 78 -45 59z"/>
<path d="M2078 3186 c-48 -74 -55 -96 -35 -111 9 -7 17 -19 17 -28 0 -22 31
-29 82 -18 23 5 55 12 70 15 l27 6 -66 88 c-36 48 -66 88 -67 88 0 1 -13 -17
-28 -40z"/>
<path d="M2430 3067 c-19 -6 -54 -30 -76 -53 -74 -73 -80 -177 -16 -263 47
-64 150 -89 230 -55 55 23 91 62 107 119 14 45 13 57 0 103 -34 113 -145 181
-245 149z m120 -87 c35 -25 54 -79 46 -125 -8 -39 -32 -69 -48 -59 -6 4 -26 8
-45 10 -18 2 -40 10 -49 19 -17 17 -14 18 35 15 23 -1 31 2 26 10 -8 12 -53
10 -90 -5 l-20 -8 20 17 c20 17 20 17 -3 11 -16 -5 -24 -1 -29 11 -6 16 -7 16
-15 -2 -5 -12 -6 -7 -2 16 15 92 106 139 174 90z"/>
<path d="M3409 2859 c-31 -4 -86 -15 -123 -23 -37 -9 -80 -16 -96 -16 -27 0
-29 -3 -45 -71 -8 -39 -27 -98 -40 -130 -22 -55 -22 -58 -4 -49 11 6 24 8 29
5 6 -3 10 -1 10 5 0 7 7 9 16 6 8 -3 13 -2 10 2 -3 5 9 17 27 27 18 10 70 55
117 99 47 45 110 98 140 118 58 40 56 42 -41 27z"/>
<path d="M1568 2838 c-9 -7 -19 -23 -23 -35 -5 -18 -2 -23 12 -23 11 0 23 -4
29 -9 5 -4 32 -17 59 -27 44 -16 100 -47 130 -72 6 -5 16 -7 23 -4 7 2 16 -4
18 -15 3 -10 15 -25 26 -32 19 -12 20 -11 13 6 -5 10 -18 55 -29 101 -17 66
-25 84 -41 87 -11 2 -52 10 -91 19 -87 19 -105 20 -126 4z"/>
<path d="M1854 2783 c3 -10 10 -38 16 -63 12 -45 76 -180 86 -180 3 0 2 5 -1
10 -3 6 -1 10 6 10 6 0 9 -8 6 -20 -3 -11 0 -23 5 -27 6 -3 8 -2 5 3 -3 6 -2
16 2 23 6 9 16 8 44 -5 21 -10 37 -22 37 -27 0 -5 -6 -4 -14 2 -11 9 -16 9
-22 -1 -4 -7 -4 -10 1 -6 4 4 14 3 21 -3 10 -8 21 0 46 36 18 26 56 79 85 119
28 39 50 72 49 73 -4 4 -352 73 -366 73 -6 0 -9 -8 -6 -17z"/>
<path d="M2910 2764 c-85 -18 -158 -33 -162 -33 -5 -1 -8 -4 -8 -8 0 -7 107
-154 124 -170 3 -3 27 0 53 6 26 6 59 13 73 15 14 3 27 5 30 6 3 2 8 2 12 1
12 -2 49 78 69 149 11 36 19 66 19 67 0 8 -71 -3 -210 -33z"/>
<path d="M2306 2666 c-8 -34 -36 -60 -150 -136 -62 -43 -95 -59 -110 -55 -11
2 -15 2 -8 -1 6 -3 9 -10 6 -15 -3 -6 -12 -5 -22 3 -10 7 -6 0 7 -15 23 -25
49 -38 36 -18 -3 6 8 5 27 -1 18 -5 46 -13 62 -17 19 -4 35 -19 52 -48 20 -36
21 -41 6 -37 -9 2 1 -4 23 -15 22 -11 68 -26 102 -34 62 -14 63 -14 58 7 -17
85 -26 136 -45 246 -12 69 -25 134 -29 145 -7 17 -8 16 -15 -9z"/>
<path d="M2642 2615 c-8 -44 -18 -102 -23 -128 -11 -59 -12 -97 -1 -80 4 6 20
16 35 22 23 9 36 7 78 -14 60 -31 72 -30 117 13 19 17 42 32 51 32 8 0 -7 15
-34 33 -95 62 -204 157 -207 180 -2 12 -9 -14 -16 -58z"/>
<path d="M2217 2258 c7 -8 10 -18 6 -21 -3 -4 -2 -7 4 -7 15 0 51 -63 58 -102
7 -34 89 -134 116 -140 7 -2 20 -9 27 -15 7 -7 17 -13 22 -13 9 0 4 53 -10
105 -4 17 -13 57 -20 90 l-12 61 -81 19 c-45 10 -84 19 -87 19 -3 1 -12 5 -20
11 -12 7 -13 6 -3 -7z"/>
</g>
</svg>
